<svg xmlns="http://www.w3.org/2000/svg" xmlns:xlink="http://www.w3.org/1999/xlink" width="40" zoomAndPan="magnify" viewBox="0 0 30 30.000001" height="40" preserveAspectRatio="xMidYMid meet" version="1.0"><defs><g/><clipPath id="055663500d"><path d="M 21 12 L 29.515625 12 L 29.515625 15 L 21 15 Z M 21 12 " clip-rule="nonzero"/></clipPath></defs><g fill="#6a9955" fill-opacity="1"><g transform="translate(14.999601, 18.508066)"><g><path d="M 8.1875 -4.09375 L -0.15625 -4.09375 L -0.15625 -6.34375 L 8.1875 -6.34375 Z M 8.1875 -4.09375 "/></g></g></g><g clip-path="url(#055663500d)"><g fill="#6a9955" fill-opacity="1"><g transform="translate(21.631444, 18.508066)"><g><path d="M 8.1875 -4.09375 L -0.15625 -4.09375 L -0.15625 -6.34375 L 8.1875 -6.34375 Z M 8.1875 -4.09375 "/></g></g></g></g><g fill="#6a9955" fill-opacity="1"><g transform="translate(1.150689, 17.889348)"><g><path d="M 5.3125 -11.15625 L 7.390625 -11.15625 L 2.75 1.484375 L 0.671875 1.484375 Z M 5.3125 -11.15625 "/></g></g></g><g fill="#6a9955" fill-opacity="1"><g transform="translate(7.008421, 17.889348)"><g><path d="M 5.3125 -11.15625 L 7.390625 -11.15625 L 2.75 1.484375 L 0.671875 1.484375 Z M 5.3125 -11.15625 "/></g></g></g></svg>